HIERARCHY
ROOT Hips
{
 OFFSET 0.000000 0.000000 0.000000
 CHANNELS 6 Xposition Yposition Zposition Yrotation Xrotation Zrotation
 JOINT Chest
 {
  OFFSET 0.000000 9.910571 -0.011835
  CHANNELS 3 Yrotation Xrotation Zrotation
  JOINT Chest2
  {
   OFFSET 0.000000 10.789473 0.021497
   CHANNELS 3 Yrotation Xrotation Zrotation
   JOINT Chest3
   {
    OFFSET 0.000000 9.748205 0.000000
    CHANNELS 3 Yrotation Xrotation Zrotation
    JOINT Chest4
    {
     OFFSET 0.000000 9.748205 0.000000
     CHANNELS 3 Yrotation Xrotation Zrotation
     JOINT Neck
     {
      OFFSET 0.000000 13.998479 0.000000
      CHANNELS 3 Yrotation Xrotation Zrotation
      JOINT Head
      {
       OFFSET 0.000000 9.082285 0.051121
       CHANNELS 3 Yrotation Xrotation Zrotation
       End Site
       {
        OFFSET 0.000000 17.246134 0.026702
       }
      }
     }
     JOINT RightCollar
     {
      OFFSET -3.284495 7.824262 0.000000
      CHANNELS 3 Yrotation Xrotation Zrotation
      JOINT RightShoulder
      {
       OFFSET -15.534540 0.000000 0.000000
       CHANNELS 3 Yrotation Xrotation Zrotation
       JOINT RightElbow
       {
        OFFSET 0.000000 -28.251216 0.000000
        CHANNELS 3 Yrotation Xrotation Zrotation
        JOINT RightWrist
        {
         OFFSET 0.000000 -23.418114 0.012537
         CHANNELS 3 Yrotation Xrotation Zrotation
         End Site
         {
          OFFSET 0.000000 -17.723959 0.000000
         }
        }
       }
      }
     }
     JOINT LeftCollar
     {
      OFFSET 3.284495 7.824262 0.000000
      CHANNELS 3 Yrotation Xrotation Zrotation
      JOINT LeftShoulder
      {
       OFFSET 15.534540 0.000000 0.000000
       CHANNELS 3 Yrotation Xrotation Zrotation
       JOINT LeftElbow
       {
        OFFSET 0.000000 -28.251216 0.000000
        CHANNELS 3 Yrotation Xrotation Zrotation
        JOINT LeftWrist
        {
         OFFSET 0.000000 -23.418114 0.012537
         CHANNELS 3 Yrotation Xrotation Zrotation
         End Site
         {
          OFFSET 0.000000 -17.723959 0.000000
         }
        }
       }
      }
     }
    }
   }
  }
 }
 JOINT RightHip
 {
  OFFSET -8.142657 0.057990 0.005917
  CHANNELS 3 Yrotation Xrotation Zrotation
  JOINT RightKnee
  {
   OFFSET 0.000000 -49.716894 0.008478
   CHANNELS 3 Yrotation Xrotation Zrotation
   JOINT RightAnkle
   {
    OFFSET 0.000000 -43.994153 0.004166
    CHANNELS 3 Yrotation Xrotation Zrotation
    JOINT RightToe
    {
     OFFSET 0.000000 -7.619154 17.822051
     CHANNELS 3 Yrotation Xrotation Zrotation
     End Site
     {
      OFFSET 0.000000 -1.595627 7.159905
     }
    }
   }
  }
 }
 JOINT LeftHip
 {
  OFFSET 8.142657 0.057990 0.005917
  CHANNELS 3 Yrotation Xrotation Zrotation
  JOINT LeftKnee
  {
   OFFSET 0.000000 -49.716894 0.008478
   CHANNELS 3 Yrotation Xrotation Zrotation
   JOINT LeftAnkle
   {
    OFFSET 0.000000 -43.994153 0.004166
    CHANNELS 3 Yrotation Xrotation Zrotation
    JOINT LeftToe
    {
     OFFSET 0.000000 -7.619154 17.822051
     CHANNELS 3 Yrotation Xrotation Zrotation
     End Site
     {
      OFFSET 0.000000 -1.595627 7.159905
     }
    }
   }
  }
 }
}
MOTION
Frames: 5
Frame Time: 0.008333
438.819482 103.008466 402.940002 -35.115228 -18.711751 5.851973 -1.246332 8.435155 0.407477 -0.569010 3.754541 0.158650 -0.569010 3.754541 0.158650 -0.427580 2.815761 0.122445 -4.225701 17.340280 -2.229871 -7.040131 -3.990945 -2.666673 2.490717 4.396112 5.477189 4.360859 -7.218444 -13.705608 15.819800 1.222470 -8.530111 18.990615 -4.641610 -9.767072 3.656534 3.262120 -8.951789 -1.052242 -8.481327 12.353784 -34.056011 -30.352159 31.801203 -10.581974 3.710682 -17.631386 -10.416566 27.094299 -10.232474 -6.726339 -1.240022 3.852952 -4.620384 -7.273434 -0.149001 0.190192 -0.002724 0.102696 13.096266 15.945585 2.280602 -4.567425 13.303154 -1.625365 -0.669215 -7.573678 -6.017396 0.006076 -0.015287 -0.126945
438.981310 103.027622 402.883983 -35.029915 -18.592774 5.819341 -1.218496 8.448574 0.468177 -0.553078 3.758427 0.182562 -0.553078 3.758427 0.182562 -0.415784 2.818658 0.140278 -4.094137 17.158117 -2.187959 -6.813254 -4.329503 -2.627582 2.562014 4.380646 5.496062 4.694357 -7.240450 -13.928353 15.619265 0.866011 -8.331230 18.572553 -4.882490 -9.980256 4.003998 3.407002 -8.990627 -1.045598 -8.566921 12.559418 -34.626900 -31.480088 31.792666 -10.177554 3.904499 -17.318959 -10.482828 26.870513 -10.194704 -6.670574 -1.266284 3.836292 -4.594831 -7.170576 -0.155387 0.186713 0.001856 0.083933 13.210925 15.500071 2.461814 -4.608377 13.883342 -1.478561 -0.752938 -7.683586 -6.034839 -0.003965 -0.148144 -0.323303
439.093513 103.047761 402.742515 -34.946772 -18.465868 5.802545 -1.206005 8.454876 0.527454 -0.542717 3.758574 0.206228 -0.542717 3.758574 0.206228 -0.408162 2.818750 0.157957 -3.969440 16.994331 -2.156167 -6.595182 -4.634190 -2.606035 2.606882 4.365479 5.508770 5.044177 -7.306378 -14.126000 15.360114 0.540281 -8.154615 18.206770 -5.134231 -10.212449 4.329866 3.560324 -9.031561 -0.998652 -8.608717 12.711776 -35.000695 -32.674468 31.573438 -9.947540 4.147256 -16.782596 -10.586773 26.626299 -10.171300 -6.569688 -1.288161 3.811086 -4.838899 -7.076786 -0.126177 0.168010 0.010470 0.059772 13.323132 15.054823 2.663286 -4.589272 14.443653 -1.340994 -0.847584 -7.753765 -6.025502 -0.010227 -0.278109 -0.518179
439.205109 103.068840 402.597212 -34.893167 -18.341295 5.780998 -1.196555 8.453451 0.569732 -0.536413 3.760018 0.225866 -0.536413 3.760018 0.225866 -0.403556 2.819819 0.172643 -3.841279 16.850203 -2.122724 -6.370881 -4.902336 -2.583821 2.641436 4.350251 5.538967 5.414634 -7.393724 -14.310066 15.054269 0.233587 -7.994800 17.899088 -5.372809 -10.449491 4.633323 3.714255 -9.039464 -0.897376 -8.626416 12.799784 -35.447949 -33.714770 31.574317 -9.605006 4.344563 -16.316240 -10.693381 26.370002 -10.156424 -6.434190 -1.282187 3.775005 -4.888791 -6.986086 -0.109663 0.142440 0.011689 0.042173 13.456104 14.613814 2.898902 -4.556311 14.995043 -1.235854 -0.885906 -7.811046 -5.985851 -0.023594 -0.389935 -0.696482
439.314261 103.091254 402.455613 -34.847989 -18.213078 5.770513 -1.197646 8.450787 0.619736 -0.534701 3.759067 0.245584 -0.534701 3.759067 0.245584 -0.402394 2.819089 0.187415 -3.720390 16.721768 -2.101497 -6.155410 -5.141605 -2.582652 2.663078 4.351881 5.552769 5.779986 -7.550956 -14.466819 14.729270 -0.042250 -7.853457 17.622918 -5.598300 -10.679334 4.908366 3.856679 -9.057518 -0.771770 -8.590748 12.830666 -35.635084 -34.813527 31.296499 -9.446418 4.600209 -15.614866 -10.811845 26.102838 -10.144875 -6.297009 -1.268359 3.729404 -5.002545 -6.899399 -0.097285 0.126923 0.012967 0.036500 13.581538 14.187620 3.130138 -4.499894 15.511826 -1.114875 -0.881309 -7.844246 -5.954373 -0.032656 -0.485692 -0.855620
